<svg width="148" height="150" viewBox="0 0 148 150" fill="none" xmlns="http://www.w3.org/2000/svg">
<path d="M14.777 8.41793L14.6343 8.28906H14.442C14.4319 8.28906 14.36 8.28618 14.2213 8.14529C14.1366 8.05927 14.044 7.98006 13.9436 7.91316C14.9586 5.48614 16.3323 3.67874 18.049 2.45829C19.8729 1.1616 22.1226 0.5 24.8266 0.5H123.481C126.177 0.5 128.422 1.20639 130.245 2.59502C131.958 3.89946 133.332 5.83195 134.349 8.42785C134.053 8.55223 133.778 8.75398 133.526 9.00746L123.981 17.0858V12.5977V12.0977H123.481H24.8266H24.3266V12.5977V17.0391L14.777 8.41793ZM14.442 141.125H14.6251L14.765 141.007L24.3266 132.914V137.402V137.902H24.8266H123.481H123.981V137.402V132.914L133.542 141.007L133.682 141.125H133.865C133.875 141.125 133.947 141.128 134.086 141.269C134.174 141.358 134.27 141.44 134.374 141.508C133.354 144.136 131.972 146.09 130.245 147.405C128.422 148.794 126.177 149.5 123.481 149.5H24.8266C22.1301 149.5 19.8853 148.794 18.0623 147.405C16.3356 146.09 14.9529 144.136 13.9331 141.508C14.0375 141.44 14.1337 141.358 14.2213 141.269C14.36 141.128 14.4319 141.125 14.442 141.125ZM3.19708 126.674L3.21104 126.664L3.22426 126.653L13.0287 118.453L13.032 118.45L25.1442 108.492L25.1477 108.489L64.667 75.3833L65.1245 75L64.667 74.6167L25.1477 41.5112L25.1441 41.5083L13.0287 31.5474L13.0224 31.5422L13.0159 31.5372L2.37051 23.3553C1.20163 22.1596 0.603904 20.9082 0.517781 19.5962C0.431178 18.2768 0.85756 16.8293 1.86343 15.2406C3.11757 13.7977 4.60997 13.0977 6.36502 13.0977C8.03703 13.0977 9.12562 13.4773 9.75875 14.1203L9.79359 14.1557L9.8347 14.1836L12.4029 15.9225L24.4932 26.7398L24.5026 26.7482L24.5124 26.7561L73.8394 66.5999L74.1571 66.8565L74.4719 66.5965L123.798 25.8745L123.799 25.8739L135.896 15.9284L138.473 14.1836L138.514 14.1557L138.548 14.1203C139.182 13.4773 140.27 13.0977 141.942 13.0977C142.94 13.0977 143.742 13.2821 144.372 13.6232C144.997 13.9614 145.479 14.4679 145.821 15.1622L145.848 15.2171L145.887 15.2639C146.954 16.5279 147.392 17.9546 147.214 19.5745C147.036 21.2021 146.334 22.4378 145.11 23.3257L145.096 23.3359L145.083 23.3469L135.279 31.5474L135.275 31.5501L123.163 41.5083L123.16 41.5112L83.6403 74.6167L83.1827 75L83.6403 75.3833L123.16 108.489L123.163 108.492L135.279 118.453L135.285 118.458L135.291 118.463L145.964 126.666L145.976 126.675L145.989 126.684C146.972 127.349 147.554 128.495 147.645 130.25C147.735 131.998 147.331 133.49 146.451 134.751C145.195 136.2 143.701 136.902 141.942 136.902C140.27 136.902 139.182 136.523 138.548 135.88L138.514 135.844L138.473 135.816L135.896 134.072L123.799 124.126L123.798 124.125L74.4719 83.4035L74.1536 83.1407L73.8353 83.4035L24.5091 124.125L24.5083 124.126L12.4116 134.072L9.8347 135.816L9.79359 135.844L9.75875 135.88C9.12562 136.523 8.03703 136.902 6.36502 136.902C5.36706 136.902 4.56477 136.718 3.93489 136.377C3.31064 136.039 2.82851 135.532 2.48668 134.838L2.45965 134.783L2.4202 134.736C1.35345 133.472 0.915587 132.045 1.09281 130.425C1.27087 128.798 1.97302 127.562 3.19708 126.674ZM135.096 41.1951V108.805L123.981 99.6661V50.3339L135.096 41.1951ZM13.2112 108.805V41.1951L24.3266 50.3339V99.6661L13.2112 108.805Z" fill="#FFCC00" stroke="white"/>
</svg>
